<svg width="90" height="90" viewBox="0 0 90 90" fill="none" xmlns="http://www.w3.org/2000/svg">
<path d="M44.9992 56.25C32.573 56.25 22.4994 46.1764 22.4994 33.75C22.4994 21.3236 32.573 11.25 44.9992 11.25C57.4256 11.25 67.4992 21.3236 67.4992 33.75C67.4992 46.1764 57.4256 56.25 44.9992 56.25ZM44.9992 56.25L58.6564 78.1054C60.1916 80.5628 63.9922 79.3163 63.774 76.4269L63.2212 69.111C63.0529 66.8812 65.457 65.379 67.3871 66.5077L73.7205 70.2116C76.2214 71.6745 79.008 68.805 77.4724 66.348L64.3403 45.2539M44.9992 56.25L31.3426 78.1054C29.8071 80.5628 26.0067 79.3163 26.2249 76.4269L26.7775 69.111C26.9458 66.8812 24.5419 65.379 22.6118 66.5077L16.2784 70.2116C13.7772 71.6745 10.9909 68.805 12.5263 66.348L25.6586 45.2539M52.4992 33.75C52.4992 37.8922 49.1415 41.25 44.9992 41.25C40.8574 41.25 37.4994 37.8922 37.4994 33.75C37.4994 29.6079 40.8574 26.25 44.9992 26.25C49.1415 26.25 52.4992 29.6079 52.4992 33.75Z" stroke="black" stroke-width="2" stroke-linecap="round"/>
</svg>
