<svg width="90" height="90" viewBox="0 0 90 90" fill="none" xmlns="http://www.w3.org/2000/svg">
<path d="M16.875 41.25H73.125M16.875 41.25C12.7329 41.25 9.375 44.6078 9.375 48.75V63.75H13.8281M16.875 41.25L23.8305 20.1518C24.8441 17.0772 27.716 15 30.9534 15H59.0468C62.2841 15 65.1559 17.0772 66.1695 20.1518L73.125 41.25M73.125 41.25C77.2672 41.25 80.625 44.6078 80.625 48.75V63.75H76.1719M13.8281 63.75V69.7267C13.8281 71.6036 15.3497 73.125 17.2266 73.125C19.1035 73.125 20.625 71.6036 20.625 69.7267V63.75M13.8281 63.75H20.625M76.1719 63.75V69.7267C76.1719 71.6036 74.6505 73.125 72.7733 73.125C70.8964 73.125 69.375 71.6036 69.375 69.7267V63.75M76.1719 63.75H69.375M69.375 63.75H20.625M26.25 52.5C26.25 53.5354 25.4105 54.375 24.375 54.375C23.3395 54.375 22.5 53.5354 22.5 52.5C22.5 51.4646 23.3395 50.625 24.375 50.625C25.4105 50.625 26.25 51.4646 26.25 52.5ZM67.5 52.5C67.5 53.5354 66.6604 54.375 65.625 54.375C64.5896 54.375 63.75 53.5354 63.75 52.5C63.75 51.4646 64.5896 50.625 65.625 50.625C66.6604 50.625 67.5 51.4646 67.5 52.5Z" stroke="black" stroke-width="2" stroke-linecap="round"/>
</svg>
