<svg width="24" height="26" viewBox="0 0 24 26" fill="none" xmlns="http://www.w3.org/2000/svg">
<path d="M2.21362 5.52637L2.20262 5.52643L2.19167 5.52745C1.80241 5.56368 1.47401 5.70059 1.23825 5.96143C1.00483 6.21968 0.889365 6.5695 0.863767 6.97954L0.862353 7.00219L0.865041 7.02473C0.962095 7.8385 1.15016 8.62756 1.42924 9.39146L1.42934 9.39171C2.19015 11.4672 3.15886 13.4129 4.33553 15.2283C4.92565 16.1859 5.61283 17.0593 6.39691 17.8481L6.39849 17.8497C7.50739 18.9455 8.79213 19.7202 10.2505 20.1705L10.2504 20.1705L10.2533 20.1714C11.2845 20.4762 12.3262 20.5204 13.3749 20.3034L13.3824 20.3019L13.3898 20.2998C13.9188 20.156 14.2657 19.7936 14.4201 19.2511L14.4287 19.221L14.4296 19.1897C14.4552 18.2849 14.4737 17.3794 14.485 16.4734C14.6006 16.5233 14.7116 16.584 14.8179 16.6556C15.4395 17.1398 16.0143 17.6884 16.5424 18.3018C16.9849 18.8492 17.4447 19.3814 17.9218 19.8981L17.9279 19.9048L17.9345 19.911C18.2629 20.2186 18.6508 20.3954 19.0911 20.4346L19.0997 20.4353L19.1084 20.4355C19.971 20.4525 20.8337 20.4525 21.6963 20.4355L21.6963 20.4356L21.702 20.4353C22.1512 20.4162 22.5314 20.2261 22.8301 19.8789L22.8458 19.8607L22.8577 19.8398C23.1507 19.3267 23.1864 18.7816 22.9668 18.2273L22.9668 18.2272L22.965 18.2229C22.7782 17.7759 22.5517 17.355 22.2853 16.9607L22.2854 16.9606L22.2801 16.9533C21.3917 15.7352 20.4335 14.5778 19.4056 13.4813C19.3958 13.4694 19.3871 13.4567 19.3796 13.443C19.4065 13.3754 19.4387 13.3109 19.4759 13.2496C20.5226 11.7052 21.4572 10.0797 22.2799 8.37322L22.2799 8.37324L22.282 8.36876C22.4955 7.90253 22.6314 7.41138 22.6898 6.89632L22.6923 6.87437L22.6909 6.85233C22.6698 6.51921 22.5762 6.22781 22.3894 6.00078C22.201 5.77191 21.9378 5.63276 21.6236 5.56939L21.6062 5.56588L21.5885 5.56487C21.0883 5.53618 20.5875 5.52335 20.0859 5.52637C19.5844 5.52335 19.0836 5.53618 18.5833 5.56487L18.5639 5.56598L18.5448 5.57011C18.0524 5.67661 17.671 5.96365 17.4091 6.41201L17.4005 6.42678L17.394 6.44258C17.127 7.08827 16.8474 7.72781 16.5551 8.36126C16.0382 9.43682 15.431 10.4446 14.7336 11.3848C14.6501 11.4836 14.5637 11.5782 14.4743 11.6687L14.4648 9.50769L14.4531 6.84168L14.4531 6.82719L14.4513 6.8128C14.4094 6.46529 14.2946 6.1671 14.0872 5.94238C13.878 5.71577 13.5961 5.58726 13.2647 5.54142L13.2493 5.53929L13.2338 5.53909C11.9581 5.52212 10.6825 5.52212 9.40683 5.53909L9.39534 5.53924L9.38391 5.54045C9.16669 5.56337 8.96458 5.63669 8.78041 5.75805L8.7654 5.76794L8.75196 5.77987C8.4789 6.02238 8.29924 6.30512 8.2424 6.62908C8.18575 6.95195 8.25664 7.28411 8.42561 7.61628L8.43579 7.63629L8.44936 7.65416C8.62824 7.88964 8.79119 8.13768 8.93815 8.39834C9.02021 8.60456 9.07477 8.81921 9.10177 9.04283C9.11833 10.2441 9.11775 11.4454 9.09999 12.6466C8.86428 12.3413 8.64478 12.023 8.44149 11.6916C7.52766 10.1044 6.79339 8.42116 6.23867 6.64143L6.23587 6.63242L6.23238 6.62364C6.10768 6.30926 5.92937 6.05155 5.69054 5.86454C5.45085 5.67686 5.16396 5.57121 4.84024 5.5402L4.83018 5.53924L4.82007 5.53909C3.9513 5.52637 3.08249 5.52213 2.21362 5.52637ZM18.8532 7.07959C19.625 7.05825 20.3962 7.06274 21.1666 7.09309C21.0346 7.54026 20.8588 7.96731 20.6393 8.37454L20.6384 8.37627C19.8783 9.81304 19.0544 11.2025 18.1665 12.5447L18.1621 12.5514L18.1581 12.5583C17.9808 12.8677 17.8911 13.1856 17.9053 13.508C17.9195 13.8306 18.0368 14.1377 18.2412 14.4266L18.2494 14.4381L18.2587 14.4486C18.8639 15.1273 19.4637 15.8108 20.0581 16.4991C20.4439 16.9772 20.8132 17.469 21.1661 17.9745C21.3128 18.2111 21.4482 18.4559 21.5725 18.7088C21.6025 18.7701 21.6213 18.8317 21.6292 18.8948C20.8146 18.9113 19.9999 18.9114 19.1852 18.895C19.0672 18.8717 18.9657 18.816 18.8758 18.7218C18.3424 18.1186 17.8176 17.5079 17.3013 16.8896L17.3014 16.8894L17.2943 16.8816C16.7487 16.2814 16.1536 15.7492 15.5093 15.2854L15.5094 15.2854L15.5059 15.283C15.0632 14.9755 14.5733 14.8489 14.0468 14.9097C13.8287 14.9328 13.6325 15.0078 13.4703 15.1432C13.3088 15.278 13.1958 15.4602 13.1228 15.6741L13.1199 15.6827L13.1176 15.6914C13.056 15.9259 13.0221 16.1651 13.0157 16.4085L13.0157 16.4085L13.0156 16.4127L13.0039 17.6695L12.9933 18.8043C12.7158 18.8764 12.4336 18.9107 12.1463 18.9073C10.9989 18.8694 9.92956 18.5404 8.93422 17.9175C7.76447 17.1733 6.77763 16.2038 5.97316 15.0061L5.97264 15.0053C4.74301 13.1893 3.72071 11.2348 2.90584 9.14137C2.67591 8.50979 2.49214 7.86269 2.35452 7.19997C2.34601 7.15562 2.34018 7.11132 2.33702 7.06703C3.14503 7.06342 3.95302 7.06774 4.76096 7.07998C4.78297 7.08138 4.79854 7.08666 4.81755 7.11311C4.98962 7.5199 5.13991 7.93627 5.26847 8.36227L5.26814 8.36237L5.27263 8.37483C5.79328 9.8191 6.43236 11.1953 7.18991 12.5032L7.19057 12.5044C7.54103 13.1023 7.95559 13.6473 8.43409 14.1392L8.43404 14.1392L8.43826 14.1434C8.71377 14.4135 9.04383 14.5708 9.42127 14.6072L9.44491 14.6095L9.46857 14.6073C9.78456 14.5778 10.0565 14.4651 10.253 14.2465C10.447 14.0307 10.5406 13.7414 10.562 13.4096L10.5623 13.4096L10.5625 13.3962C10.5781 11.9133 10.5781 10.4304 10.5625 8.94756L10.5624 8.937L10.5614 8.92648C10.5008 8.29065 10.3003 7.70996 9.95924 7.18839L9.94965 7.17371L9.93809 7.16051C9.91343 7.13235 9.88943 7.10364 9.86608 7.07438C10.9088 7.06108 11.9509 7.06561 12.9923 7.08798C12.9936 8.8702 13.0092 10.6518 13.0391 12.4329L13.0395 12.4582L13.045 12.4829C13.1374 12.8988 13.3126 13.2362 13.615 13.4162C13.9224 13.5992 14.2917 13.5791 14.6761 13.4378L14.699 13.4294L14.7198 13.4167C15.1013 13.1846 15.4387 12.891 15.7316 12.5374L15.7317 12.5375L15.7377 12.5297C16.7784 11.1681 17.6404 9.67699 18.3241 8.05718L18.3253 8.05426L18.6701 7.20759C18.7183 7.12856 18.7758 7.09198 18.8532 7.07959Z" fill="black" stroke="black" stroke-width="0.5"/>
</svg>
