<svg width="25" height="26" viewBox="0 0 25 26" fill="none" xmlns="http://www.w3.org/2000/svg">
<path d="M2.70776 5.77625C3.57317 5.77201 4.43853 5.77625 5.30384 5.78894C5.86812 5.8431 6.26181 6.15203 6.48494 6.7157C7.04419 8.51379 7.7848 10.215 8.7068 11.8192C8.9227 12.1721 9.15658 12.5107 9.40845 12.8348C9.53437 12.9843 9.67079 13.1197 9.81774 13.2411C9.84503 11.8362 9.84892 10.4313 9.82943 9.02625C9.79987 8.77087 9.73749 8.52542 9.64233 8.28992C9.48806 8.01418 9.31653 7.75179 9.12779 7.50281C8.82552 6.90732 8.91517 6.39527 9.39675 5.96668C9.54798 5.86682 9.7117 5.80758 9.8879 5.78894C11.1586 5.77201 12.4294 5.77201 13.7002 5.78894C14.2721 5.86821 14.5957 6.21947 14.6708 6.84265L14.6942 12.1747C14.7038 12.1863 14.7155 12.1948 14.7292 12.2001C14.9689 12.0035 15.1911 11.7834 15.3958 11.5399C16.1037 10.5844 16.7196 9.56032 17.2435 8.46765C17.5369 7.83058 17.8175 7.18736 18.0854 6.53797C18.3137 6.14632 18.6372 5.90511 19.056 5.81433C19.5504 5.78592 20.0455 5.77323 20.5412 5.77625C21.0369 5.77323 21.5319 5.78592 22.0263 5.81433C22.5656 5.92334 22.8541 6.27459 22.8917 6.86805C22.8364 7.35717 22.7077 7.82266 22.5058 8.26453C21.6892 9.96199 20.7614 11.5785 19.7226 13.1141C19.6595 13.2172 19.6089 13.3272 19.5706 13.4442C19.5907 13.5211 19.6258 13.5888 19.6758 13.6473C20.6962 14.7378 21.6474 15.8889 22.5292 17.1005C22.7855 17.4809 23.0038 17.8871 23.184 18.3192C23.3758 18.8043 23.3446 19.2698 23.0905 19.7157C22.8354 20.0128 22.5196 20.1694 22.1433 20.1854C21.2857 20.2024 20.4281 20.2024 19.5706 20.1854C19.1884 20.1514 18.8532 19.999 18.5649 19.7284C18.0917 19.2147 17.6356 18.6858 17.1967 18.1415C16.6566 17.5125 16.068 16.9497 15.4309 16.453C15.2764 16.348 15.1127 16.2634 14.9397 16.1991C14.8622 16.1865 14.7842 16.1822 14.7058 16.1864C14.6951 17.1859 14.6756 18.1845 14.6474 19.1825C14.5153 19.6474 14.2308 19.9394 13.7937 20.0585C12.7877 20.2671 11.7898 20.2247 10.8 19.9315C9.38403 19.4933 8.13667 18.74 7.05794 17.6718C6.28852 16.8961 5.61415 16.037 5.03488 15.0946C3.87034 13.2945 2.91142 11.3648 2.15814 9.30555C1.88631 8.55995 1.70311 7.78975 1.60852 6.995C1.65515 6.24651 2.02156 5.84026 2.70776 5.77625ZM2.75454 6.81726C3.58874 6.81302 4.42293 6.81726 5.25706 6.82996C5.37229 6.83539 5.46196 6.89041 5.52602 6.995C5.70487 7.41661 5.86078 7.84825 5.99379 8.28992C6.50837 9.72038 7.13985 11.083 7.88822 12.3778C8.22789 12.9585 8.62939 13.4875 9.09271 13.9647C9.32841 14.1963 9.60516 14.3275 9.92299 14.3583C10.4618 14.3078 10.7503 13.9862 10.7883 13.3934C10.8039 11.9123 10.8039 10.4312 10.7883 8.95008C10.7316 8.3533 10.5445 7.81164 10.227 7.32508C10.1076 7.18842 10.0024 7.04032 9.91129 6.88074L9.95807 6.82996C11.1986 6.80891 12.4382 6.81315 13.6768 6.84265C13.695 6.87386 13.7067 6.90771 13.7119 6.94422C13.7125 8.77295 13.728 10.6011 13.7586 12.4286C13.9297 13.2007 14.3624 13.4588 15.0567 13.203C15.4129 12.9858 15.7287 12.7107 16.0039 12.3778C17.0292 11.0334 17.879 9.56072 18.5532 7.95984L18.904 7.09656C18.9923 6.94064 19.1209 6.85177 19.2899 6.82996C20.164 6.80538 21.0371 6.81384 21.9094 6.85535C21.9201 6.86586 21.9279 6.87856 21.9328 6.89344C21.7907 7.45576 21.5841 7.98897 21.313 8.49305C20.5508 9.93696 19.7244 11.3334 18.8338 12.6825C18.5178 13.2351 18.5412 13.7683 18.904 14.2821C19.5097 14.9628 20.11 15.6484 20.7049 16.3387C21.0959 16.8241 21.4701 17.3235 21.8275 17.8368C21.9796 18.0823 22.1199 18.3362 22.2485 18.5985C22.3198 18.7442 22.3471 18.8965 22.3304 19.0555C22.2627 19.1145 22.1847 19.1441 22.0965 19.1444C21.2701 19.1613 20.4437 19.1613 19.6173 19.1444C19.4359 19.1136 19.28 19.029 19.1496 18.8905C18.6148 18.2845 18.0885 17.6709 17.5709 17.0497C17.0378 16.4621 16.457 15.9416 15.8285 15.4882C15.4348 15.2141 15.006 15.1041 14.5421 15.1581C14.1895 15.195 13.9518 15.3939 13.8288 15.7548C13.7723 15.9705 13.7411 16.1906 13.7352 16.4149L13.7119 18.9286C13.7002 18.9751 13.6729 19.0048 13.63 19.0175C13.2975 19.1149 12.9583 19.1615 12.6126 19.1571C11.4215 19.1182 10.3105 18.7754 9.27981 18.1288C8.08204 17.3653 7.07247 16.3709 6.25106 15.1454C5.01282 13.3128 3.98374 11.3408 3.16383 9.22937C2.9296 8.58501 2.7425 7.92485 2.60251 7.2489C2.58136 7.13924 2.57356 7.02923 2.57913 6.91883C2.58632 6.89831 2.59801 6.88138 2.61421 6.86805C2.66465 6.85408 2.71143 6.83715 2.75454 6.81726Z" fill="white"/>
<path d="M2.70776 5.77625C3.57317 5.77201 4.43853 5.77625 5.30384 5.78894C5.86812 5.8431 6.26181 6.15203 6.48494 6.7157C7.04419 8.51379 7.7848 10.215 8.7068 11.8192C8.9227 12.1721 9.15658 12.5107 9.40845 12.8348C9.53437 12.9843 9.67079 13.1197 9.81774 13.2411C9.84503 11.8362 9.84892 10.4313 9.82943 9.02625C9.79987 8.77087 9.73749 8.52542 9.64233 8.28992C9.48806 8.01418 9.31653 7.75179 9.12779 7.50281C8.82552 6.90732 8.91517 6.39527 9.39675 5.96668C9.54798 5.86682 9.7117 5.80758 9.8879 5.78894C11.1586 5.77201 12.4294 5.77201 13.7002 5.78894C14.2721 5.86821 14.5957 6.21947 14.6708 6.84265L14.6942 12.1747C14.7038 12.1863 14.7155 12.1948 14.7292 12.2001C14.9689 12.0035 15.1911 11.7834 15.3958 11.5399C16.1037 10.5844 16.7196 9.56032 17.2435 8.46765C17.5369 7.83058 17.8175 7.18736 18.0854 6.53797C18.3137 6.14632 18.6372 5.90511 19.056 5.81433C19.5504 5.78592 20.0455 5.77323 20.5412 5.77625C21.0369 5.77323 21.5319 5.78592 22.0263 5.81433C22.5656 5.92334 22.8541 6.27459 22.8917 6.86805C22.8364 7.35717 22.7077 7.82266 22.5058 8.26453C21.6892 9.96199 20.7614 11.5785 19.7226 13.1141C19.6595 13.2172 19.6089 13.3272 19.5706 13.4442C19.5907 13.5211 19.6258 13.5888 19.6758 13.6473C20.6962 14.7378 21.6474 15.8889 22.5292 17.1005C22.7855 17.4809 23.0038 17.8871 23.184 18.3192C23.3758 18.8043 23.3446 19.2698 23.0905 19.7157C22.8354 20.0128 22.5196 20.1694 22.1433 20.1854C21.2857 20.2024 20.4281 20.2024 19.5706 20.1854C19.1884 20.1514 18.8532 19.999 18.5649 19.7284C18.0917 19.2147 17.6356 18.6858 17.1967 18.1415C16.6566 17.5125 16.068 16.9497 15.4309 16.453C15.2764 16.348 15.1127 16.2634 14.9397 16.1991C14.8622 16.1865 14.7842 16.1822 14.7058 16.1864C14.6951 17.1859 14.6756 18.1845 14.6474 19.1825C14.5153 19.6474 14.2308 19.9394 13.7937 20.0585C12.7877 20.2671 11.7898 20.2247 10.8 19.9315C9.38403 19.4933 8.13667 18.74 7.05794 17.6718C6.28852 16.8961 5.61415 16.037 5.03488 15.0946C3.87034 13.2945 2.91142 11.3648 2.15814 9.30555C1.88631 8.55995 1.70311 7.78975 1.60852 6.995C1.65515 6.24651 2.02156 5.84026 2.70776 5.77625ZM2.75454 6.81726C3.58874 6.81302 4.42293 6.81726 5.25706 6.82996C5.37229 6.83539 5.46196 6.89041 5.52602 6.995C5.70487 7.41661 5.86078 7.84825 5.99379 8.28992C6.50837 9.72038 7.13985 11.083 7.88822 12.3778C8.22789 12.9585 8.62939 13.4875 9.09271 13.9647C9.32841 14.1963 9.60516 14.3275 9.92299 14.3583C10.4618 14.3078 10.7503 13.9862 10.7883 13.3934C10.8039 11.9123 10.8039 10.4312 10.7883 8.95008C10.7316 8.3533 10.5445 7.81164 10.227 7.32508C10.1076 7.18842 10.0024 7.04032 9.91129 6.88074L9.95807 6.82996C11.1986 6.80891 12.4382 6.81315 13.6768 6.84265C13.695 6.87386 13.7067 6.90771 13.7119 6.94422C13.7125 8.77295 13.728 10.6011 13.7586 12.4286C13.9297 13.2007 14.3624 13.4588 15.0567 13.203C15.4129 12.9858 15.7287 12.7107 16.0039 12.3778C17.0292 11.0334 17.879 9.56072 18.5532 7.95984L18.904 7.09656C18.9923 6.94064 19.1209 6.85177 19.2899 6.82996C20.164 6.80538 21.0371 6.81384 21.9094 6.85535C21.9201 6.86586 21.9279 6.87856 21.9328 6.89344C21.7907 7.45576 21.5841 7.98897 21.313 8.49305C20.5508 9.93696 19.7244 11.3334 18.8338 12.6825C18.5178 13.2351 18.5412 13.7683 18.904 14.2821C19.5097 14.9628 20.11 15.6484 20.7049 16.3387C21.0959 16.8241 21.4701 17.3235 21.8275 17.8368C21.9796 18.0823 22.1199 18.3362 22.2485 18.5985C22.3198 18.7442 22.3471 18.8965 22.3304 19.0555C22.2627 19.1145 22.1847 19.1441 22.0965 19.1444C21.2701 19.1613 20.4437 19.1613 19.6173 19.1444C19.4359 19.1136 19.28 19.029 19.1496 18.8905C18.6148 18.2845 18.0885 17.6709 17.5709 17.0497C17.0378 16.4621 16.457 15.9416 15.8285 15.4882C15.4348 15.2141 15.006 15.1041 14.5421 15.1581C14.1895 15.195 13.9518 15.3939 13.8288 15.7548C13.7723 15.9705 13.7411 16.1906 13.7352 16.4149L13.7119 18.9286C13.7002 18.9751 13.6729 19.0048 13.63 19.0175C13.2975 19.1149 12.9583 19.1615 12.6126 19.1571C11.4215 19.1182 10.3105 18.7754 9.27981 18.1288C8.08204 17.3653 7.07247 16.3709 6.25106 15.1454C5.01282 13.3128 3.98374 11.3408 3.16383 9.22937C2.9296 8.58501 2.7425 7.92485 2.60251 7.2489C2.58136 7.13924 2.57356 7.02923 2.57913 6.91883C2.58632 6.89831 2.59801 6.88138 2.61421 6.86805C2.66465 6.85408 2.71143 6.83715 2.75454 6.81726Z" stroke="white"/>
</svg>
